<!-- ============================================================ -->
<!-- DIAGRAM 1: System Architecture Overview                       -->
<!-- Save as: system_architecture_overview_v2.svg                  -->
<!-- ============================================================ -->

<svg width="680" height="720" viewBox="0 0 680 720" xmlns="http://www.w3.org/2000/svg" style="background:#2b2b2b;font-family:'Segoe UI',system-ui,sans-serif">
<defs>
  <marker id="a1" viewBox="0 0 10 10" refX="8" refY="5" markerWidth="6" markerHeight="6" orient="auto"><path d="M2 1L8 5L2 9" fill="none" stroke="#9c9a92" stroke-width="1.5" stroke-linecap="round"/></marker>
</defs>

<text x="340" y="28" text-anchor="middle" fill="#faf9f5" font-size="14" font-weight="500">Borrower's Forum Platform — system architecture</text>

<!-- User roles -->
<rect x="40"  y="44" width="130" height="44" rx="8" fill="#444441" stroke="#b4b2a9"/>
<text x="105" y="62" text-anchor="middle" fill="#b4b2a9" font-size="12">Finance ministry</text>
<text x="105" y="78" text-anchor="middle" fill="#b4b2a9" font-size="12">negotiator</text>

<rect x="190" y="44" width="130" height="44" rx="8" fill="#444441" stroke="#b4b2a9"/>
<text x="255" y="62" text-anchor="middle" fill="#b4b2a9" font-size="12">Policy</text>
<text x="255" y="78" text-anchor="middle" fill="#b4b2a9" font-size="12">researcher</text>

<rect x="340" y="44" width="130" height="44" rx="8" fill="#444441" stroke="#b4b2a9"/>
<text x="405" y="62" text-anchor="middle" fill="#b4b2a9" font-size="12">Civil society</text>
<text x="405" y="78" text-anchor="middle" fill="#b4b2a9" font-size="12">advocate</text>

<rect x="490" y="44" width="150" height="44" rx="8" fill="#444441" stroke="#b4b2a9"/>
<text x="565" y="62" text-anchor="middle" fill="#b4b2a9" font-size="12">Development</text>
<text x="565" y="78" text-anchor="middle" fill="#b4b2a9" font-size="12">partner / UN agency</text>

<!-- Connector lines from users -->
<line x1="105" y1="88" x2="105" y2="104" stroke="#c2c0b6" stroke-width="0.5"/>
<line x1="255" y1="88" x2="255" y2="104" stroke="#c2c0b6" stroke-width="0.5"/>
<line x1="405" y1="88" x2="405" y2="104" stroke="#c2c0b6" stroke-width="0.5"/>
<line x1="565" y1="88" x2="565" y2="104" stroke="#c2c0b6" stroke-width="0.5"/>
<line x1="105" y1="104" x2="565" y2="104" stroke="#c2c0b6" stroke-width="0.5"/>
<line x1="340" y1="104" x2="340" y2="120" stroke="#9c9a92" stroke-width="1.5" marker-end="url(#a1)"/>

<!-- Frontend box -->
<rect x="60" y="120" width="560" height="130" rx="12" fill="none" stroke="#dedcd1" stroke-width="0.5" stroke-dasharray="6 4" opacity="0.3"/>
<text x="76" y="138" fill="#c2c0b6" font-size="12">Frontend (Next.js 16 on Vercel) — 8 pages</text>

<rect x="80"  y="148" width="120" height="40" rx="8" fill="#085041" stroke="#5dcaa5"/>
<text x="140" y="172" text-anchor="middle" fill="#5dcaa5" font-size="12">Calculator</text>

<rect x="214" y="148" width="120" height="40" rx="8" fill="#085041" stroke="#5dcaa5"/>
<text x="274" y="172" text-anchor="middle" fill="#5dcaa5" font-size="12">Precedents</text>

<rect x="348" y="148" width="120" height="40" rx="8" fill="#085041" stroke="#5dcaa5"/>
<text x="408" y="172" text-anchor="middle" fill="#5dcaa5" font-size="12">Countries</text>

<rect x="482" y="148" width="120" height="40" rx="8" fill="#085041" stroke="#5dcaa5"/>
<text x="542" y="172" text-anchor="middle" fill="#5dcaa5" font-size="12">AI brief + chat</text>

<rect x="160" y="198" width="320" height="32" rx="6" fill="#444441" stroke="#b4b2a9"/>
<text x="320" y="218" text-anchor="middle" fill="#b4b2a9" font-size="12">Fallback: hardcoded data for 16+ countries</text>

<!-- Arrow: frontend → backend -->
<line x1="340" y1="250" x2="340" y2="272" stroke="#9c9a92" stroke-width="1.5" marker-end="url(#a1)"/>
<text x="348" y="266" fill="#c2c0b6" font-size="12">X-API-Key</text>

<!-- Backend box -->
<rect x="60" y="272" width="560" height="290" rx="12" fill="none" stroke="#dedcd1" stroke-width="0.5" stroke-dasharray="6 4" opacity="0.3"/>
<text x="76" y="290" fill="#c2c0b6" font-size="12">Backend (FastAPI on Render) — 23 endpoints</text>

<!-- Auth layer -->
<rect x="180" y="298" width="280" height="36" rx="8" fill="#3c3489" stroke="#afa9ec"/>
<text x="320" y="320" text-anchor="middle" fill="#afa9ec" font-size="12">Auth: SHA-256 + rate limit + 3-tier RBAC</text>

<line x1="320" y1="334" x2="320" y2="356" stroke="#9c9a92" stroke-width="1.5" marker-end="url(#a1)"/>

<!-- Service boxes -->
<rect x="80"  y="356" width="140" height="40" rx="8" fill="#0c447c" stroke="#85b7eb"/>
<text x="150" y="380" text-anchor="middle" fill="#85b7eb" font-size="12">Debt calculator</text>

<rect x="234" y="356" width="140" height="40" rx="8" fill="#0c447c" stroke="#85b7eb"/>
<text x="304" y="380" text-anchor="middle" fill="#85b7eb" font-size="12">Precedent search</text>

<rect x="388" y="356" width="140" height="40" rx="8" fill="#0c447c" stroke="#85b7eb"/>
<text x="458" y="380" text-anchor="middle" fill="#85b7eb" font-size="12">AI service</text>

<!-- Arrows to engine/prompt -->
<line x1="150" y1="396" x2="150" y2="416" stroke="#9c9a92" stroke-width="1.5" marker-end="url(#a1)"/>
<line x1="304" y1="396" x2="240" y2="416" stroke="#9c9a92" stroke-width="1.5" marker-end="url(#a1)"/>
<line x1="458" y1="396" x2="470" y2="416" stroke="#9c9a92" stroke-width="1.5" marker-end="url(#a1)"/>

<!-- Similarity engine -->
<rect x="100" y="416" width="220" height="44" rx="8" fill="#712b13" stroke="#f0997b"/>
<text x="210" y="434" text-anchor="middle" fill="#f5c4b3" font-size="14" font-weight="500">Similarity engine</text>
<text x="210" y="450" text-anchor="middle" fill="#f0997b" font-size="12">Rule-based weighted formula</text>

<!-- Prompt builder -->
<rect x="340" y="416" width="240" height="44" rx="8" fill="#712b13" stroke="#f0997b"/>
<text x="460" y="434" text-anchor="middle" fill="#f5c4b3" font-size="14" font-weight="500">Prompt builder</text>
<text x="460" y="450" text-anchor="middle" fill="#f0997b" font-size="12">DB context → Claude Haiku 4.5</text>

<!-- External data service -->
<rect x="140" y="478" width="360" height="36" rx="8" fill="#444441" stroke="#b4b2a9"/>
<text x="320" y="500" text-anchor="middle" fill="#b4b2a9" font-size="12">external_data.py: World Bank + IMF (1hr cache)</text>

<!-- Fan-out to external APIs -->
<line x1="320" y1="514" x2="320" y2="560" stroke="#c2c0b6" stroke-width="0.5"/>
<line x1="320" y1="560" x2="140" y2="560" stroke="#c2c0b6" stroke-width="0.5"/>
<line x1="320" y1="560" x2="520" y2="560" stroke="#c2c0b6" stroke-width="0.5"/>
<line x1="140" y1="560" x2="140" y2="580" stroke="#9c9a92" stroke-width="1.5" marker-end="url(#a1)"/>
<line x1="320" y1="560" x2="320" y2="580" stroke="#9c9a92" stroke-width="1.5" marker-end="url(#a1)"/>
<line x1="520" y1="560" x2="520" y2="580" stroke="#9c9a92" stroke-width="1.5" marker-end="url(#a1)"/>

<!-- External APIs -->
<rect x="60"  y="580" width="160" height="44" rx="8" fill="#3c3489" stroke="#afa9ec"/>
<text x="140" y="598" text-anchor="middle" fill="#cecbf6" font-size="14" font-weight="500">World Bank API</text>
<text x="140" y="614" text-anchor="middle" fill="#afa9ec" font-size="12">5 indicators, 190+ countries</text>

<rect x="240" y="580" width="160" height="44" rx="8" fill="#3c3489" stroke="#afa9ec"/>
<text x="320" y="598" text-anchor="middle" fill="#cecbf6" font-size="14" font-weight="500">IMF API</text>
<text x="320" y="614" text-anchor="middle" fill="#afa9ec" font-size="12">SDMX-JSON format</text>

<rect x="420" y="580" width="200" height="44" rx="8" fill="#3c3489" stroke="#afa9ec"/>
<text x="520" y="598" text-anchor="middle" fill="#cecbf6" font-size="14" font-weight="500">Anthropic API</text>
<text x="520" y="614" text-anchor="middle" fill="#afa9ec" font-size="12">Claude Haiku 4.5</text>

<!-- Database -->
<line x1="320" y1="640" x2="320" y2="660" stroke="#9c9a92" stroke-width="1.5" marker-end="url(#a1)"/>

<rect x="100" y="660" width="480" height="44" rx="8" fill="#0c447c" stroke="#85b7eb"/>
<text x="340" y="678" text-anchor="middle" fill="#b5d4f4" font-size="14" font-weight="500">Supabase PostgreSQL</text>
<text x="340" y="694" text-anchor="middle" fill="#85b7eb" font-size="12">20 countries | 23 precedents | 4 tables</text>
</svg>


<!-- ============================================================ -->
<!-- DIAGRAM 2: Precedent Search Flow                              -->
<!-- Save as: precedent_search_flow.svg                            -->
<!-- ============================================================ -->

<svg width="680" height="522" viewBox="0 0 680 522" xmlns="http://www.w3.org/2000/svg" style="background:#2b2b2b;font-family:'Segoe UI',system-ui,sans-serif">
<defs>
  <marker id="a2" viewBox="0 0 10 10" refX="8" refY="5" markerWidth="6" markerHeight="6" orient="auto"><path d="M2 1L8 5L2 9" fill="none" stroke="#9c9a92" stroke-width="1.5" stroke-linecap="round"/></marker>
</defs>

<text x="340" y="30" text-anchor="middle" fill="#faf9f5" font-size="14" font-weight="500">Precedent search and similarity matching</text>

<!-- User input -->
<rect x="230" y="50" width="220" height="56" rx="8" fill="#085041" stroke="#5dcaa5"/>
<text x="340" y="72" text-anchor="middle" fill="#9fe1cb" font-size="14" font-weight="500">User input</text>
<text x="340" y="90" text-anchor="middle" fill="#5dcaa5" font-size="12">Country, filters, debt amount</text>

<line x1="340" y1="106" x2="340" y2="136" stroke="#9c9a92" stroke-width="1.5" marker-end="url(#a2)"/>

<!-- Frontend -->
<rect x="210" y="136" width="260" height="44" rx="8" fill="#444441" stroke="#b4b2a9"/>
<text x="340" y="162" text-anchor="middle" fill="#d3d1c7" font-size="14" font-weight="500">Frontend: precedents-search.tsx</text>

<line x1="340" y1="180" x2="340" y2="210" stroke="#9c9a92" stroke-width="1.5" marker-end="url(#a2)"/>
<text x="348" y="200" fill="#c2c0b6" font-size="12">X-API-Key header</text>

<!-- Auth -->
<rect x="180" y="210" width="320" height="56" rx="8" fill="#3c3489" stroke="#afa9ec"/>
<text x="340" y="232" text-anchor="middle" fill="#cecbf6" font-size="14" font-weight="500">Auth layer</text>
<text x="340" y="250" text-anchor="middle" fill="#afa9ec" font-size="12">SHA-256 verify + rate limit check</text>

<line x1="340" y1="266" x2="340" y2="296" stroke="#9c9a92" stroke-width="1.5" marker-end="url(#a2)"/>

<!-- Service -->
<rect x="170" y="296" width="340" height="56" rx="8" fill="#0c447c" stroke="#85b7eb"/>
<text x="340" y="318" text-anchor="middle" fill="#b5d4f4" font-size="14" font-weight="500">precedent_search.py</text>
<text x="340" y="336" text-anchor="middle" fill="#85b7eb" font-size="12">SQLAlchemy JOIN + dynamic filters</text>

<line x1="340" y1="352" x2="340" y2="382" stroke="#9c9a92" stroke-width="1.5" marker-end="url(#a2)"/>

<!-- Scoring engine -->
<rect x="140" y="382" width="400" height="56" rx="8" fill="#712b13" stroke="#f0997b"/>
<text x="340" y="404" text-anchor="middle" fill="#f5c4b3" font-size="14" font-weight="500">Similarity scoring engine</text>
<text x="340" y="422" text-anchor="middle" fill="#f0997b" font-size="12">Region 30% | Income 25% | Debt 20% | Climate 15% | Recency 10%</text>

<line x1="340" y1="438" x2="340" y2="468" stroke="#9c9a92" stroke-width="1.5" marker-end="url(#a2)"/>

<!-- Output -->
<rect x="160" y="468" width="360" height="44" rx="8" fill="#085041" stroke="#5dcaa5"/>
<text x="340" y="494" text-anchor="middle" fill="#9fe1cb" font-size="14" font-weight="500">Output: ranked precedents + score breakdowns</text>
</svg>


<!-- ============================================================ -->
<!-- DIAGRAM 3: Debt Calculator Flow                               -->
<!-- Save as: debt_calculator_flow.svg                             -->
<!-- ============================================================ -->

<svg width="680" height="600" viewBox="0 0 680 600" xmlns="http://www.w3.org/2000/svg" style="background:#2b2b2b;font-family:'Segoe UI',system-ui,sans-serif">
<defs>
  <marker id="a3" viewBox="0 0 10 10" refX="8" refY="5" markerWidth="6" markerHeight="6" orient="auto"><path d="M2 1L8 5L2 9" fill="none" stroke="#9c9a92" stroke-width="1.5" stroke-linecap="round"/></marker>
</defs>

<text x="340" y="30" text-anchor="middle" fill="#faf9f5" font-size="14" font-weight="500">Debt impact calculator (live data)</text>

<!-- User input -->
<rect x="200" y="50" width="280" height="56" rx="8" fill="#085041" stroke="#5dcaa5"/>
<text x="340" y="72" text-anchor="middle" fill="#9fe1cb" font-size="14" font-weight="500">User input</text>
<text x="340" y="90" text-anchor="middle" fill="#5dcaa5" font-size="12">Country, year, debt amount (USD)</text>

<line x1="340" y1="106" x2="340" y2="136" stroke="#9c9a92" stroke-width="1.5" marker-end="url(#a3)"/>

<!-- Frontend -->
<rect x="200" y="136" width="280" height="44" rx="8" fill="#444441" stroke="#b4b2a9"/>
<text x="340" y="162" text-anchor="middle" fill="#d3d1c7" font-size="14" font-weight="500">Frontend: debt-calculator.tsx</text>

<line x1="340" y1="180" x2="340" y2="210" stroke="#9c9a92" stroke-width="1.5" marker-end="url(#a3)"/>
<text x="348" y="200" fill="#c2c0b6" font-size="12">POST /debt/calculate-live</text>

<!-- Auth -->
<rect x="210" y="210" width="260" height="44" rx="8" fill="#3c3489" stroke="#afa9ec"/>
<text x="340" y="236" text-anchor="middle" fill="#cecbf6" font-size="14" font-weight="500">Auth + rate limit</text>

<line x1="340" y1="254" x2="340" y2="284" stroke="#9c9a92" stroke-width="1.5" marker-end="url(#a3)"/>

<!-- External data -->
<rect x="170" y="284" width="340" height="56" rx="8" fill="#0c447c" stroke="#85b7eb"/>
<text x="340" y="306" text-anchor="middle" fill="#b5d4f4" font-size="14" font-weight="500">external_data.py</text>
<text x="340" y="324" text-anchor="middle" fill="#85b7eb" font-size="12">World Bank API (5 indicators, 1hr cache)</text>

<line x1="340" y1="340" x2="340" y2="370" stroke="#9c9a92" stroke-width="1.5" marker-end="url(#a3)"/>

<!-- Calculator -->
<rect x="140" y="370" width="400" height="56" rx="8" fill="#712b13" stroke="#f0997b"/>
<text x="340" y="392" text-anchor="middle" fill="#f5c4b3" font-size="14" font-weight="500">debt_calculator.py</text>
<text x="340" y="410" text-anchor="middle" fill="#f0997b" font-size="12">doctors = debt / salary, schools = debt / cost</text>

<!-- Fan-out to outputs -->
<line x1="140" y1="426" x2="140" y2="456" stroke="#9c9a92" stroke-width="1.5" marker-end="url(#a3)"/>
<line x1="340" y1="426" x2="340" y2="456" stroke="#9c9a92" stroke-width="1.5" marker-end="url(#a3)"/>
<line x1="540" y1="426" x2="540" y2="456" stroke="#9c9a92" stroke-width="1.5" marker-end="url(#a3)"/>

<!-- Output boxes -->
<rect x="40"  y="456" width="160" height="56" rx="8" fill="#085041" stroke="#5dcaa5"/>
<text x="120" y="478" text-anchor="middle" fill="#9fe1cb" font-size="14" font-weight="500">Doctors</text>
<text x="120" y="496" text-anchor="middle" fill="#5dcaa5" font-size="12">1yr and 5yr employment</text>

<rect x="260" y="456" width="160" height="56" rx="8" fill="#085041" stroke="#5dcaa5"/>
<text x="340" y="478" text-anchor="middle" fill="#9fe1cb" font-size="14" font-weight="500">Schools</text>
<text x="340" y="496" text-anchor="middle" fill="#5dcaa5" font-size="12">Construction count</text>

<rect x="480" y="456" width="160" height="56" rx="8" fill="#085041" stroke="#5dcaa5"/>
<text x="560" y="478" text-anchor="middle" fill="#9fe1cb" font-size="14" font-weight="500">Climate budget</text>
<text x="560" y="496" text-anchor="middle" fill="#5dcaa5" font-size="12">% of annual adaptation</text>

<!-- Fallback -->
<rect x="40" y="530" width="600" height="44" rx="8" fill="#444441" stroke="#b4b2a9"/>
<text x="340" y="556" text-anchor="middle" fill="#b4b2a9" font-size="12">Fallback: if API unavailable, uses hardcoded income-level estimates from api-actions.ts</text>
</svg>


<!-- ============================================================ -->
<!-- DIAGRAM 4: AI Strategy Brief Flow                             -->
<!-- Save as: ai_strategy_brief_flow.svg                           -->
<!-- ============================================================ -->

<svg width="680" height="720" viewBox="0 0 680 720" xmlns="http://www.w3.org/2000/svg" style="background:#2b2b2b;font-family:'Segoe UI',system-ui,sans-serif">
<defs>
  <marker id="a4" viewBox="0 0 10 10" refX="8" refY="5" markerWidth="6" markerHeight="6" orient="auto"><path d="M2 1L8 5L2 9" fill="none" stroke="#9c9a92" stroke-width="1.5" stroke-linecap="round"/></marker>
</defs>

<text x="340" y="30" text-anchor="middle" fill="#faf9f5" font-size="14" font-weight="500">AI strategy brief generation</text>

<!-- User input -->
<rect x="210" y="50" width="260" height="56" rx="8" fill="#085041" stroke="#5dcaa5"/>
<text x="340" y="72" text-anchor="middle" fill="#9fe1cb" font-size="14" font-weight="500">User input</text>
<text x="340" y="90" text-anchor="middle" fill="#5dcaa5" font-size="12">Country code, debt amount, relief %</text>

<line x1="340" y1="106" x2="340" y2="136" stroke="#9c9a92" stroke-width="1.5" marker-end="url(#a4)"/>

<!-- Frontend -->
<rect x="200" y="136" width="280" height="44" rx="8" fill="#444441" stroke="#b4b2a9"/>
<text x="340" y="162" text-anchor="middle" fill="#d3d1c7" font-size="14" font-weight="500">Frontend: strategy-brief.tsx</text>

<line x1="340" y1="180" x2="340" y2="210" stroke="#9c9a92" stroke-width="1.5" marker-end="url(#a4)"/>
<text x="348" y="200" fill="#c2c0b6" font-size="12">POST /ai/strategy-brief</text>

<!-- Auth -->
<rect x="210" y="210" width="260" height="44" rx="8" fill="#3c3489" stroke="#afa9ec"/>
<text x="340" y="236" text-anchor="middle" fill="#cecbf6" font-size="14" font-weight="500">Auth + Anthropic key check</text>

<line x1="340" y1="254" x2="340" y2="284" stroke="#9c9a92" stroke-width="1.5" marker-end="url(#a4)"/>

<!-- Context assembly -->
<rect x="130" y="284" width="420" height="44" rx="8" fill="#0c447c" stroke="#85b7eb"/>
<text x="340" y="310" text-anchor="middle" fill="#b5d4f4" font-size="14" font-weight="500">ai_service.py: context assembly</text>

<!-- Fan-out to 3 data sources -->
<line x1="200" y1="328" x2="200" y2="358" stroke="#9c9a92" stroke-width="1.5" marker-end="url(#a4)"/>
<line x1="340" y1="328" x2="340" y2="358" stroke="#9c9a92" stroke-width="1.5" marker-end="url(#a4)"/>
<line x1="480" y1="328" x2="480" y2="358" stroke="#9c9a92" stroke-width="1.5" marker-end="url(#a4)"/>

<!-- Step boxes -->
<rect x="100" y="358" width="160" height="56" rx="8" fill="#444441" stroke="#b4b2a9"/>
<text x="180" y="380" text-anchor="middle" fill="#d3d1c7" font-size="14" font-weight="500">Step 1: country</text>
<text x="180" y="398" text-anchor="middle" fill="#b4b2a9" font-size="12">Profile + debt data</text>

<rect x="270" y="358" width="140" height="56" rx="8" fill="#444441" stroke="#b4b2a9"/>
<text x="340" y="380" text-anchor="middle" fill="#d3d1c7" font-size="14" font-weight="500">Step 2: similar</text>
<text x="340" y="398" text-anchor="middle" fill="#b4b2a9" font-size="12">Top 5 precedents</text>

<rect x="420" y="358" width="160" height="56" rx="8" fill="#444441" stroke="#b4b2a9"/>
<text x="500" y="380" text-anchor="middle" fill="#d3d1c7" font-size="14" font-weight="500">Step 3: climate</text>
<text x="500" y="398" text-anchor="middle" fill="#b4b2a9" font-size="12">Climate precedents</text>

<!-- Arrows down to prompt -->
<line x1="200" y1="414" x2="200" y2="434" stroke="#9c9a92" stroke-width="1.5" marker-end="url(#a4)"/>
<line x1="340" y1="414" x2="340" y2="434" stroke="#9c9a92" stroke-width="1.5" marker-end="url(#a4)"/>
<line x1="480" y1="414" x2="480" y2="434" stroke="#9c9a92" stroke-width="1.5" marker-end="url(#a4)"/>

<!-- Prompt construction -->
<rect x="130" y="434" width="420" height="56" rx="8" fill="#712b13" stroke="#f0997b"/>
<text x="340" y="456" text-anchor="middle" fill="#f5c4b3" font-size="14" font-weight="500">Prompt construction</text>
<text x="340" y="474" text-anchor="middle" fill="#f0997b" font-size="12">All verified data assembled as context</text>

<line x1="340" y1="490" x2="340" y2="520" stroke="#9c9a92" stroke-width="1.5" marker-end="url(#a4)"/>

<!-- Claude API -->
<rect x="140" y="520" width="400" height="56" rx="8" fill="#3c3489" stroke="#afa9ec"/>
<text x="340" y="542" text-anchor="middle" fill="#cecbf6" font-size="14" font-weight="500">Anthropic API call</text>
<text x="340" y="560" text-anchor="middle" fill="#afa9ec" font-size="12">Claude Haiku 4.5, max 1200 tokens</text>

<line x1="340" y1="576" x2="340" y2="606" stroke="#9c9a92" stroke-width="1.5" marker-end="url(#a4)"/>

<!-- Output -->
<rect x="100" y="606" width="480" height="56" rx="8" fill="#085041" stroke="#5dcaa5"/>
<text x="340" y="626" text-anchor="middle" fill="#9fe1cb" font-size="14" font-weight="500">Output: strategy brief (markdown)</text>
<text x="340" y="644" text-anchor="middle" fill="#5dcaa5" font-size="12">Summary, precedents, position, climate clauses, talking points</text>

<line x1="340" y1="662" x2="340" y2="680" stroke="#9c9a92" stroke-width="1.5" marker-end="url(#a4)"/>

<!-- Disclaimer footer -->
<rect x="120" y="680" width="440" height="30" rx="8" fill="#444441" stroke="#b4b2a9"/>
<text x="340" y="699" text-anchor="middle" fill="#b4b2a9" font-size="12">+ AI disclaimer footer appended | downloadable as PDF</text>
</svg>
