<svg width="120" height="120" viewBox="84 0 112 124" xmlns="http://www.w3.org/2000/svg">
  <!-- Shield outline (green border) -->
  <path d="M140 6 L190 28 L190 68 Q190 102 140 118 Q90 102 90 68 L90 28 Z" fill="#10b981"/>
  <!-- Shield fill (dark) -->
  <path d="M140 10 L187 30 L187 67 Q187 99 140 114 Q93 99 93 67 L93 30 Z" fill="#0c1222"/>
  <!-- Globe grid (subtle) -->
  <ellipse cx="140" cy="58" rx="32" ry="32" fill="none" stroke="#10b981" stroke-width="0.6" opacity="0.3"/>
  <ellipse cx="140" cy="58" rx="14" ry="32" fill="none" stroke="#10b981" stroke-width="0.6" opacity="0.3"/>
  <line x1="108" y1="58" x2="172" y2="58" stroke="#10b981" stroke-width="0.6" opacity="0.3"/>
  <!-- Network nodes -->
  <line x1="140" y1="42" x2="118" y2="62" stroke="#34d399" stroke-width="1.2" opacity="0.7"/>
  <line x1="140" y1="42" x2="162" y2="55" stroke="#34d399" stroke-width="1.2" opacity="0.7"/>
  <line x1="140" y1="42" x2="140" y2="70" stroke="#34d399" stroke-width="1.2" opacity="0.7"/>
  <line x1="118" y1="62" x2="140" y2="70" stroke="#34d399" stroke-width="1.2" opacity="0.5"/>
  <line x1="162" y1="55" x2="140" y2="70" stroke="#34d399" stroke-width="1.2" opacity="0.5"/>
  <line x1="118" y1="62" x2="130" y2="85" stroke="#34d399" stroke-width="1.2" opacity="0.5"/>
  <line x1="140" y1="70" x2="150" y2="85" stroke="#34d399" stroke-width="1.2" opacity="0.5"/>
  <!-- Node dots -->
  <circle cx="140" cy="42" r="5" fill="#6ee7b7"/>
  <circle cx="118" cy="62" r="4" fill="#34d399"/>
  <circle cx="162" cy="55" r="4" fill="#34d399"/>
  <circle cx="140" cy="70" r="4" fill="#34d399"/>
  <circle cx="130" cy="85" r="3" fill="#10b981"/>
  <circle cx="150" cy="85" r="3" fill="#10b981"/>
</svg>
